<?xml version="1.0" encoding="UTF-8"?>
<svg version="1.1" xmlns="http://www.w3.org/2000/svg" width="118" height="118">
<path d="M0 0 C13.52948703 9.14312596 22.24566713 22.84582907 25.7109375 38.83203125 C27.23751626 58.38697871 24.03692599 74.3862802 11.5859375 90.01953125 C2.57879847 99.67003735 -11.22061265 107.96796038 -24.55639648 109.0090332 C-44.02724467 109.49038678 -60.5008686 106.81767889 -75.3515625 92.95703125 C-89.15096561 77.82220203 -93.14105747 61.5137935 -92.46386719 41.48974609 C-91.5977169 28.32087452 -83.9815842 14.66933044 -74.2890625 5.83203125 C-52.40790695 -11.76802865 -24.298117 -15.14646401 0 0 Z " fill="#09BE81" transform="translate(92.2890625,9.16796875)"/>
<path d="M0 0 C13.52948703 9.14312596 22.24566713 22.84582907 25.7109375 38.83203125 C27.23751626 58.38697871 24.03692599 74.3862802 11.5859375 90.01953125 C2.57879847 99.67003735 -11.22061265 107.96796038 -24.55639648 109.0090332 C-44.02724467 109.49038678 -60.5008686 106.81767889 -75.3515625 92.95703125 C-89.15096561 77.82220203 -93.14105747 61.5137935 -92.46386719 41.48974609 C-91.5977169 28.32087452 -83.9815842 14.66933044 -74.2890625 5.83203125 C-52.40790695 -11.76802865 -24.298117 -15.14646401 0 0 Z M-62.7265625 4.26953125 C-64.50020869 6.79429226 -64.50020869 6.79429226 -64.7265625 10.01953125 C-64.9121875 10.94765625 -65.0978125 11.87578125 -65.2890625 12.83203125 C-66.03800781 13.12851562 -66.78695312 13.425 -67.55859375 13.73046875 C-70.81427677 15.04392027 -72.26221463 16.62334737 -74.5390625 19.26953125 C-75.22484375 20.05199219 -75.910625 20.83445312 -76.6171875 21.640625 C-80.15841994 26.28228715 -79.28278877 31.33437964 -78.98632812 36.8515625 C-78.85831564 41.94361479 -79.83937614 44.16550746 -83.2890625 47.83203125 C-85.43755262 54.27750162 -84.83163473 61.59117213 -82.2890625 67.83203125 C-80.48907141 70.6727993 -78.61632677 73.39725749 -76.2890625 75.83203125 C-75.6290625 75.83203125 -74.9690625 75.83203125 -74.2890625 75.83203125 C-74.4334375 76.94578125 -74.5778125 78.05953125 -74.7265625 79.20703125 C-74.71577446 85.28070042 -71.25104666 89.49768016 -67.2890625 93.83203125 C-61.59249841 98.38512445 -56.34060842 100.24085857 -49.0625 100.1875 C-43.73110818 99.50418077 -38.43705292 96.99012986 -34.62890625 93.1640625 C-33.2890625 91.83203125 -33.2890625 91.83203125 -31.2890625 91.83203125 C-30.5671875 92.59515625 -29.8453125 93.35828125 -29.1015625 94.14453125 C-24.72805992 98.32365594 -20.46288437 99.98486211 -14.4765625 100.33203125 C-6.40477937 100.02581793 -0.35773152 96.31371776 5.2109375 90.64453125 C8.58201707 86.60325694 9.44469406 83.46197881 10.0859375 78.33203125 C11.25590436 73.65216379 14.63116396 70.41352228 17.7109375 66.83203125 C20.21223997 61.82942632 19.45632972 53.69470321 18.07421875 48.38671875 C17.19253994 46.33090183 16.31015757 44.43125132 14.7109375 42.83203125 C14.55039702 40.66770775 14.43322349 38.50011909 14.3359375 36.33203125 C13.82505945 26.10019192 13.82505945 26.10019192 8.58203125 17.73046875 C4.59682996 14.1812287 4.59682996 14.1812287 -0.2890625 12.83203125 C-0.2684375 11.84203125 -0.2478125 10.85203125 -0.2265625 9.83203125 C-0.89061329 4.90195721 -4.35884602 2.52104304 -7.96484375 -0.56640625 C-12.8007201 -3.89869079 -18.5860613 -3.85338338 -24.2890625 -3.16796875 C-26.35977786 -2.29281426 -26.35977786 -2.29281426 -28.1640625 -1.10546875 C-31.2890625 0.83203125 -31.2890625 0.83203125 -33.4140625 0.76953125 C-35.2890625 -0.16796875 -35.2890625 -0.16796875 -37.54296875 -1.6953125 C-46.89805743 -6.71219505 -55.88776473 -2.56926652 -62.7265625 4.26953125 Z " fill="#C4EEDF" transform="translate(92.2890625,9.16796875)"/>
<path d="M0 0 C3.70407878 0.36433562 5.7817357 0.90459903 8.58422852 3.37792969 C11.47639055 8.08035176 10.39400188 14.37404774 10.1875 19.6875 C10.14689453 21.65686523 10.14689453 21.65686523 10.10546875 23.66601562 C10.0348216 26.90400979 9.93620566 30.13866958 9.8125 33.375 C9.1525 33.375 8.4925 33.375 7.8125 33.375 C7.585625 34.1175 7.35875 34.86 7.125 35.625 C5.1062948 39.85466804 2.22091313 41.74903861 -2 43.625 C-2.721875 43.8725 -3.44375 44.12 -4.1875 44.375 C-3.3066633 48.5718971 -3.3066633 48.5718971 -0.4375 51.4375 C2.79439769 51.34772506 5.00557495 49.90050275 7.8125 48.375 C8.4725 48.375 9.1325 48.375 9.8125 48.375 C10.0166769 52.89516244 10.14043748 57.41413311 10.25 61.9375 C10.30865234 63.21431641 10.36730469 64.49113281 10.42773438 65.80664062 C10.59654946 75.09147052 10.59654946 75.09147052 8.32861328 78.80419922 C4.43217395 82.81545076 1.07536402 84.50954886 -4.5625 84.625 C-8.58913764 84.572706 -11.00068195 83.99943839 -14.1875 81.375 C-17.1875 77.9612069 -17.1875 77.9612069 -17.1875 75.375 C-13.7225 74.385 -13.7225 74.385 -10.1875 73.375 C-10.1875 71.725 -10.1875 70.075 -10.1875 68.375 C-11.404375 67.941875 -12.62125 67.50875 -13.875 67.0625 C-18.9531221 65.14250331 -23.45082761 63.30101031 -26.1875 58.375 C-27.79888613 52.50495052 -26.94408766 47.71133762 -24.1875 42.375 C-22.55095179 41.00486661 -20.88946405 39.6629728 -19.1875 38.375 C-18.76879447 35.70571879 -18.76879447 35.70571879 -19.1875 33.375 C-20.5075 32.715 -21.8275 32.055 -23.1875 31.375 C-22.83739059 22.20213348 -22.83739059 22.20213348 -20.125 18.75 C-19.1659375 18.069375 -19.1659375 18.069375 -18.1875 17.375 C-15.1875 18.375 -15.1875 18.375 -14.1875 20.375 C-12.5375 20.375 -10.8875 20.375 -9.1875 20.375 C-8.1975 16.91 -8.1975 16.91 -7.1875 13.375 C-7.8475 13.375 -8.5075 13.375 -9.1875 13.375 C-9.5 10.1875 -9.5 10.1875 -9.1875 6.375 C-6.75 3.5 -6.75 3.5 -4.1875 1.375 C-3.1875 0.375 -3.1875 0.375 0 0 Z " fill="#C3EEDF" transform="translate(45.1875,14.625)"/>
<path d="M0 0 C2.4375 1.5625 2.4375 1.5625 4 4 C4.42209261 9.14952985 3.84663438 13.92019373 3 19 C5.91634129 19.2502157 5.91634129 19.2502157 9 19 C9.66 18.01 10.32 17.02 11 16 C12.88671875 16.265625 12.88671875 16.265625 15 17 C17.18233194 20.37197859 18.06630974 23.96114742 17.8125 27.9375 C17 30 17 30 15 31 C14.49734308 33.78839304 14.49734308 33.78839304 15 37 C17.82107501 39.73979203 17.82107501 39.73979203 21 42 C23.28062828 45.42094242 23.21925007 46.68187222 23.125 50.6875 C23.10695312 51.68136719 23.08890625 52.67523438 23.0703125 53.69921875 C23.04710937 54.45847656 23.02390625 55.21773437 23 56 C22.34 56 21.68 56 21 56 C20.855625 56.7425 20.71125 57.485 20.5625 58.25 C18.16394978 62.47144838 14.4079942 63.35080217 10 65 C8.989375 65.4125 7.97875 65.825 6.9375 66.25 C5.9784375 66.62125 5.9784375 66.62125 5 67 C5 68.65 5 70.3 5 72 C7.31 72.66 9.62 73.32 12 74 C10.82191948 77.3529984 9.80593388 79.7552529 7 82 C2.05257186 83.64914271 -2.93798475 83.8248061 -7.8125 81.875 C-11.71955206 78.52609823 -13.77076908 76.15236869 -14.3215332 70.98095703 C-14.39367226 67.35463132 -14.34819501 63.75066189 -14.25 60.125 C-14.23195313 58.86429688 -14.21390625 57.60359375 -14.1953125 56.3046875 C-14.14830729 53.20234386 -14.08260676 50.1015662 -14 47 C-13.25363281 47.32742187 -12.50726563 47.65484375 -11.73828125 47.9921875 C-8.38039514 49.22804287 -5.54994652 49.13921359 -2 49 C-1.32987578 46.2140814 -1.32987578 46.2140814 -2 43 C-3.92677681 41.49553044 -5.94041477 40.40190327 -8.0859375 39.234375 C-10.62857969 37.59463024 -11.33552052 35.90709774 -12 33 C-12.66 33 -13.32 33 -14 33 C-14.0990914 28.94335053 -14.17157106 24.8871723 -14.21972656 20.82958984 C-14.23980642 19.4502332 -14.26707666 18.07096131 -14.30175781 16.69189453 C-14.35042817 14.70643021 -14.37086418 12.72033746 -14.390625 10.734375 C-14.41157227 9.54038086 -14.43251953 8.34638672 -14.45410156 7.11621094 C-13.90866755 3.37324333 -12.97487258 2.25767982 -10 0 C-6.19426871 -1.2685771 -3.89430952 -0.88817586 0 0 Z " fill="#C4EEDF" transform="translate(79,16)"/>
<path d="M0 0 C1.134375 0.020625 2.26875 0.04125 3.4375 0.0625 C3.4375 0.3925 3.4375 0.7225 3.4375 1.0625 C2.365 1.31 1.2925 1.5575 0.1875 1.8125 C-3.64667714 3.09055905 -5.22629925 3.8277605 -7.5625 7.0625 C-8.36565654 10.20731791 -8.36565654 10.20731791 -8.5625 13.0625 C-8.8925 13.0625 -9.2225 13.0625 -9.5625 13.0625 C-9.875 9.875 -9.875 9.875 -9.5625 6.0625 C-7.125 3.1875 -7.125 3.1875 -4.5625 1.0625 C-3.5625 0.0625 -3.5625 0.0625 0 0 Z " fill="#89DFC2" transform="translate(45.5625,14.9375)"/>
</svg>
